<svg version="1.1" viewBox="0.0 0.0 256.0 256.0" fill="none" stroke="none" stroke-linecap="square" stroke-miterlimit="10" xmlns:xlink="http://www.w3.org/1999/xlink" xmlns="http://www.w3.org/2000/svg"><clipPath id="p.0"><path d="m0 0l256.0 0l0 256.0l-256.0 0l0 -256.0z" clip-rule="nonzero"/></clipPath><g clip-path="url(#p.0)"><path fill="#000000" fill-opacity="0.0" d="m0 0l256.0 0l0 256.0l-256.0 0z" fill-rule="evenodd"/><path fill="#ffffff" d="m0 128.0l0 0c0 -70.692444 57.307552 -128.0 128.0 -128.0l0 0c33.94771 0 66.505005 13.485676 90.509674 37.490334c24.004654 24.004654 37.490326 56.56196 37.490326 90.50967l0 0c0 70.692444 -57.307556 128.0 -128.0 128.0l0 0c-70.692444 0 -128.0 -57.307556 -128.0 -128.0z" fill-rule="evenodd"/><path fill="#9fc5e8" d="m9.779528 128.0l0 0c0 -65.29137 52.929108 -118.220474 118.220474 -118.220474l0 0c31.35402 0 61.42386 12.455336 83.5945 34.625977c22.170639 22.170639 34.625977 52.24048 34.625977 83.5945l0 0c0 65.29137 -52.929108 118.220474 -118.220474 118.220474l0 0c-65.29137 0 -118.220474 -52.929108 -118.220474 -118.220474z" fill-rule="evenodd"/><path fill="#ffffff" d="m127.982895 32.08924c-15.403381 0 -26.965286 3.9444656 -34.685722 11.833397c-7.7204285 7.8598213 -12.386414 20.275421 -13.997963 37.24682l24.51049 2.9692688c1.1618118 -12.517502 3.635353 -21.410744 7.4206085 -26.67973c3.8227386 -5.2981033 9.406937 -7.947151 16.752586 -7.947151c7.383133 0 12.854889 2.2415047 16.415283 6.724514c3.5603943 4.483013 5.3405914 11.454971 5.3405914 20.915855c0 11.993507 -4.8346405 25.500755 -14.5039215 40.521744c-6.4461823 10.363319 -11.112167 20.333641 -13.997963 29.910988c-2.8483124 9.577347 -4.2724686 19.998886 -4.2724686 31.264618l20.68776 0c0 -14.846329 6.4461823 -31.744934 19.338547 -50.695847c7.158264 -10.392426 12.217773 -19.474884 15.178513 -27.247375c2.99823 -7.7724915 4.497345 -15.690529 4.497345 -23.754128c0 -15.544979 -3.9164429 -26.94172 -11.749298 -34.19022c-7.795395 -7.2485046 -20.106857 -10.872753 -36.934387 -10.872753zm-14.166618 167.15219l0 24.671097l27.321327 0l0 -24.671097z" fill-rule="evenodd"/></g></svg>